<svg xmlns="http://www.w3.org/2000/svg" viewBox="0 0 600 600" width="600" height="600" role="img" aria-label="Photo coming soon">
  <rect width="600" height="600" fill="#ede5d5"/>
  <g fill="none" stroke="#c8a882" stroke-width="4" stroke-linecap="round" stroke-linejoin="round">
    <!-- simple tea cup -->
    <path d="M205 300 h150 a10 10 0 0 1 10 10 v20 a75 75 0 0 1 -170 0 v-20 a10 10 0 0 1 10 -10 z"/>
    <path d="M365 315 h22 a26 26 0 0 1 0 52 h-14"/>
    <path d="M262 395 h76"/>
    <!-- steam -->
    <path d="M270 270 q-12 -18 0 -36 q12 -18 0 -36" opacity="0.8"/>
    <path d="M300 270 q-12 -18 0 -36 q12 -18 0 -36" opacity="0.8"/>
    <path d="M330 270 q-12 -18 0 -36 q12 -18 0 -36" opacity="0.8"/>
  </g>
  <text x="300" y="470" text-anchor="middle" font-family="'Jost', sans-serif" font-size="24" letter-spacing="4" fill="#7a5c42">PHOTO COMING SOON</text>
</svg>
